<?xml version="1.0" encoding="iso-8859-1"?>
<!-- Uploaded to: SVG Repo, www.svgrepo.com, Generator: SVG Repo Mixer Tools -->
<svg height="800px" width="800px" version="1.1" id="Capa_1" xmlns="http://www.w3.org/2000/svg" xmlns:xlink="http://www.w3.org/1999/xlink" 
	 viewBox="0 0 512.001 512.001" xml:space="preserve">
<path style="fill:#9E8CEC;" d="M511.409,237.979c-4.279-64.666-32.76-124.696-80.203-169.035C383.637,24.484,321.414,0,255.998,0
	C190.581,0,128.356,24.485,80.787,68.946C33.346,113.285,4.868,173.316,0.594,237.983c-0.033,0.511-0.05,1.022-0.05,1.533v63.474
	c0,12.827,10.398,23.223,23.223,23.223c12.824,0,23.223-10.396,23.223-23.223v-62.688c7.575-108.768,99.237-193.855,209.007-193.855
	c109.766,0,201.432,85.086,209.014,193.852v62.691c0,12.827,10.398,23.223,23.223,23.223c12.824,0,23.223-10.396,23.223-23.223
	v-63.477C511.459,239.001,511.441,238.49,511.409,237.979z"/>
<path style="fill:#6A56CF;" d="M511.409,237.979c-4.279-64.666-32.76-124.696-80.203-169.035C383.639,24.485,321.415,0,256.002,0
	v46.447c109.765,0.002,201.43,85.086,209.011,193.852v62.691c0,12.827,10.398,23.223,23.223,23.223
	c12.824,0,23.223-10.396,23.223-23.223v-63.477C511.459,239.001,511.441,238.49,511.409,237.979z"/>
<path style="fill:#5B699C;" d="M138.883,296.252c-2.891-9.537-11.742-16.484-22.223-16.484H23.766
	c-12.826,0-23.223,10.399-23.223,23.223v185.787c0,12.827,10.398,23.223,23.223,23.223h92.894c10.481,0,19.331-6.945,22.223-16.484
	c9.537-2.889,16.482-11.742,16.482-22.222V318.473C155.367,307.992,148.42,299.141,138.883,296.252z"/>
<path style="fill:#2D4175;" d="M488.236,279.766h-92.894c-10.482,0-19.331,6.947-22.223,16.484
	c-9.537,2.889-16.482,11.74-16.482,22.222v154.823c0,10.481,6.945,19.333,16.482,22.222c2.89,9.536,11.741,16.483,22.223,16.483
	h92.894c12.824,0,23.223-10.396,23.223-23.223V302.989C511.459,290.165,501.059,279.766,488.236,279.766z"/>
</svg>